<?xml version="1.0" encoding="iso-8859-1"?>
<!-- Uploaded to: SVG Repo, www.svgrepo.com, Generator: SVG Repo Mixer Tools -->
<svg height="800px" width="800px" version="1.1" id="Layer_1" xmlns="http://www.w3.org/2000/svg" xmlns:xlink="http://www.w3.org/1999/xlink" 
	 viewBox="0 0 512.002 512.002" xml:space="preserve">
<circle style="fill:#273B7A;" cx="256.001" cy="256" r="256"/>
<path style="fill:#121149;" d="M511.723,267.733L407.644,163.654l-4.38,4.58l-10.126-10.126h-21.692L204.859,364.606l-2.443,2.298
	l-15.803,2.874l-20.83-9.194l-53.376,25.235l125.54,125.54c5.965,0.415,11.983,0.643,18.053,0.643
	C393.451,512,505.588,403.67,511.723,267.733z"/>
<path style="fill:#FFFFFF;" d="M424.664,193.439c-1.51-11.878-7.554-22.454-17.02-29.784c-19.542-15.132-47.752-11.543-62.883,7.994
	L196.728,362.81v0.002L99.955,287.87c-23.609,30.487-18.034,74.34,12.453,97.949c30.486,23.607,74.337,18.034,97.945-12.448
	c0.002-0.002,0.003-0.003,0.003-0.003l148.035-191.162c9.313-12.028,26.671-14.233,38.697-4.92
	c5.825,4.51,9.545,11.021,10.474,18.329s-1.043,14.543-5.556,20.366l-12.666,16.355c-2.913,3.765-2.227,9.178,1.538,12.093
	c3.768,2.92,9.178,2.227,12.093-1.538l12.666-16.355C422.966,217.069,426.174,205.315,424.664,193.439z"/>
<path style="fill:#D0D1D3;" d="M424.664,193.439c-1.51-11.878-7.554-22.454-17.02-29.784c-19.542-15.132-47.752-11.543-62.883,7.994
	L196.728,362.81v0.002l-42.801-33.146l-41.824,55.903c0.103,0.081,0.202,0.169,0.305,0.25
	c30.486,23.607,74.337,18.034,97.945-12.448c0.002-0.002,0.003-0.003,0.003-0.003l148.035-191.162
	c9.313-12.028,26.671-14.233,38.697-4.92c5.825,4.51,9.545,11.021,10.474,18.329s-1.043,14.543-5.556,20.366l-12.666,16.355
	c-2.913,3.765-2.227,9.178,1.538,12.093c3.768,2.92,9.178,2.227,12.093-1.538l12.666-16.355
	C422.966,217.069,426.174,205.315,424.664,193.439z"/>
</svg>